<svg xmlns="http://www.w3.org/2000/svg" viewBox="0 0 852.35 199.13"><defs><style>.cls-1{fill:#2a3a2e;}.cls-2{fill:#f59d20;}</style></defs><g id="Calque_2" data-name="Calque 2"><g id="Calque_1-2" data-name="Calque 1"><path class="cls-1" d="M0,75.75q0-32.28,21.1-54T76.07,0q34.2,0,55.72,21.73t21.53,54.45q0,33.34-21.9,55T75.75,152.89a78.65,78.65,0,0,1-39.58-10.28A65.8,65.8,0,0,1,9.06,114,85.38,85.38,0,0,1,0,75.75Zm24.4.11q0,24.39,14.28,40.91t37.5,16.52q23,0,37.82-16.89t14.81-40.33q0-23.65-15.08-40T75.86,19.71q-22.7,0-37.08,16.09T24.4,75.86Z"/><path class="cls-1" d="M199.55,132.54V65.42H178.78v-18h37V70.64a40.73,40.73,0,0,1,9.48-15,30.19,30.19,0,0,1,12.84-7.89q6.77-1.92,18.49-1.92h5.32V66.27h-4.05q-15.45,0-23.06,3.09a20.74,20.74,0,0,0-11.3,11.24q-3.67,8.15-3.67,29.25v22.69h22.48v18h-63.5v-18Z"/><path class="cls-1" d="M406,47.41v18H387.47v76.81q0,15.57-1.6,23.07t-7.72,15.34q-6.13,7.83-18.38,13.16a68,68,0,0,1-27.38,5.33,65,65,0,0,1-40.7-13.75l13.21-14.7q13.43,10.44,29.19,10.44a39.15,39.15,0,0,0,16.2-3.35q7.45-3.36,11.13-8.15a25.37,25.37,0,0,0,4.74-9.11q1.06-4.32,1.07-14.55v-9.37q-4.8,6.07-15,11.5a46.81,46.81,0,0,1-22.37,5.44q-22.15,0-36.12-15.34t-13.95-37.72q0-24.51,15.39-39.58t35.64-15.08q20.46,0,36.44,16.3V47.41ZM301.28,100q0,15.67,9.11,25.57t23.28,9.91a32.67,32.67,0,0,0,23.86-10q10-10,10-25.62,0-15.89-10-25.52t-23.22-9.64a32.31,32.31,0,0,0-23.12,9.53Q301.27,83.85,301.28,100Z"/><path class="cls-1" d="M530.89,132.54v18H495.51V138q-14.7,14.28-32.81,14.28a35.74,35.74,0,0,1-24.45-9.16q-10.39-9.17-10.39-23.44a30.13,30.13,0,0,1,11-23.87q11-9.48,26.58-9.48,14.49,0,28,8.74V84.81q0-7.89-1.49-12.15T485,65q-5.49-3.4-14.33-3.41-15.24,0-22.06,12.15l-19.39-5.12q12.9-24.07,44.54-24.08a57.59,57.59,0,0,1,20.08,3.15q8.47,3.14,12.63,8.1a26.6,26.6,0,0,1,5.59,10.7q1.44,5.76,1.44,18.33v47.73Zm-37.4-20.35Q480.38,102,467,102a20.71,20.71,0,0,0-14.06,4.9,16,16,0,0,0-5.65,12.68,16.42,16.42,0,0,0,4.95,12.15q5,4.89,13.48,4.9,14.7,0,27.81-12.36Z"/><path class="cls-1" d="M590.24,47.41V59.88q19.5-14.07,35.58-14.07,10,0,16.57,4.74A21.88,21.88,0,0,1,651,62.17q2,6.87,2,20.08v50.29h17.37v18H632.75V83.1q0-11.71-3.52-15.29a11.66,11.66,0,0,0-8.63-3.56q-13.43,0-30.36,13.1v55.19H608v18H551.88v-18H570V65.42H551.88v-18Z"/><path class="cls-1" d="M706.86,132.54V65.42h-16v-18H727.1v85.13h16v18h-52.2v-18ZM704,12.36a11.91,11.91,0,0,1,3.47-8.52A11.6,11.6,0,0,1,716.24.21a12,12,0,0,1,8.63,3.52,11.57,11.57,0,0,1,3.62,8.63A11.74,11.74,0,0,1,724.87,21a11.89,11.89,0,0,1-8.63,3.57A11.76,11.76,0,0,1,707.55,21,11.88,11.88,0,0,1,704,12.36Z"/><path class="cls-2" d="M763.6,150.55V133.71l64.65-69.57H785.87V84H768.61V47.41h83.74v18l-64.89,68.29h47.21V112.62h17.68v37.93Z"/></g></g></svg>